<svg xmlns="http://www.w3.org/2000/svg" fill="none" viewBox="0 0 1963 1014"><path fill="#2E3E52" d="M177.631 953.895h27.105c6.75 0 12.296-2.291 16.645-6.875 4.459-4.568 6.688-10.281 6.688-17.146 0-6.859-2.12-12.463-6.354-16.812-4.224-4.344-9.886-6.521-16.979-6.521h-27.105v47.354Zm62.459-23.687c0 10.182-3.604 18.646-10.813 25.396-7.099 6.64-15.849 9.958-26.25 9.958h-25.396v46.148h-12V895.041h37.396c10.292 0 19.042 3.266 26.25 9.792 7.209 6.625 10.813 15.083 10.813 25.375Zm78.549 81.502h-12V895.041h12v52.5h53.021v-52.5h12v116.669h-12v-52.148h-53.021v52.148Zm243.763-58.669c0-13.151-4.688-24.422-14.063-33.812-9.375-9.375-20.698-14.063-33.958-14.063-13.157 0-24.427 4.688-33.813 14.063-9.375 9.39-14.062 20.661-14.062 33.812 0 13.266 4.687 24.583 14.062 33.958 9.386 9.375 20.656 14.061 33.813 14.061 13.26 0 24.583-4.686 33.958-14.061s14.063-20.692 14.063-33.958Zm12.02 0c0 8.24-1.552 16.016-4.645 23.333-3.198 7.323-7.48 13.667-12.855 19.042-5.489 5.494-11.89 9.774-19.208 12.854-7.323 3.21-15.099 4.81-23.333 4.81-8.24 0-15.959-1.6-23.167-4.81-7.323-3.08-13.667-7.36-19.042-12.854-5.489-5.375-9.781-11.719-12.875-19.042-3.198-7.317-4.791-15.093-4.791-23.333 0-8.234 1.593-16.01 4.791-23.333 3.094-7.318 7.386-13.667 12.875-19.042 5.375-5.375 11.719-9.667 19.042-12.875 7.208-3.083 14.927-4.625 23.167-4.625 8.234 0 16.01 1.542 23.333 4.625 7.318 3.208 13.719 7.5 19.208 12.875 5.375 5.375 9.657 11.724 12.855 19.042 3.093 7.323 4.645 15.099 4.645 23.333Zm61.388-47.187v-11.146h68.625v11.146h-28.312v105.516h-12.021V905.854H635.81Zm237.933 47.187c0-13.151-4.688-24.422-14.063-33.812-9.375-9.375-20.698-14.063-33.958-14.063-13.156 0-24.427 4.688-33.813 14.063-9.375 9.39-14.062 20.661-14.062 33.812 0 13.266 4.687 24.583 14.062 33.958 9.386 9.375 20.657 14.061 33.813 14.061 13.26 0 24.583-4.686 33.958-14.061s14.063-20.692 14.063-33.958Zm12.021 0c0 8.24-1.552 16.016-4.646 23.333-3.198 7.323-7.479 13.667-12.854 19.042-5.49 5.494-11.891 9.774-19.209 12.854-7.323 3.21-15.099 4.81-23.333 4.81-8.24 0-15.958-1.6-23.167-4.81-7.323-3.08-13.666-7.36-19.041-12.854-5.49-5.375-9.782-11.719-12.875-19.042-3.198-7.317-4.792-15.093-4.792-23.333 0-8.234 1.594-16.01 4.792-23.333 3.093-7.318 7.385-13.667 12.875-19.042 5.375-5.375 11.718-9.667 19.041-12.875 7.209-3.083 14.927-4.625 23.167-4.625 8.234 0 16.01 1.542 23.333 4.625 7.318 3.208 13.719 7.5 19.209 12.875 5.375 5.375 9.656 11.724 12.854 19.042 3.094 7.323 4.646 15.099 4.646 23.333Zm185.926 4.104-1.18 7.209c-2.54 14.182-9.46 25.849-20.78 35-11.32 9.156-24.07 13.726-38.25 13.726-8.24 0-16.011-1.6-23.329-4.81-7.323-3.08-13.666-7.36-19.041-12.854-5.49-5.375-9.782-11.719-12.875-19.041-3.198-7.318-4.792-15.157-4.792-23.521 0-8.235 1.594-16.011 4.792-23.334 3.093-7.317 7.385-13.718 12.875-19.208 5.375-5.375 11.718-9.667 19.041-12.875 7.318-3.083 14.689-4.625 22.129-4.625 13.95 0 26.25 3.948 36.89 11.833 10.75 7.907 18.07 18.313 21.96 31.23h-12.71c-3.65-9.485-9.54-17.032-17.66-22.646-8.24-5.594-17.33-8.396-27.28-8.396-13.261 0-24.589 4.687-33.975 14.062-9.375 9.375-14.062 20.698-14.062 33.959 0 13.156 4.687 24.479 14.062 33.979 9.261 9.489 20.589 14.227 33.975 14.227 10.51 0 20.12-3.024 28.82-9.081 8.58-6.177 14.59-14.297 18.02-24.354h-47.36v-10.48h60.73Zm82.84-3.083h27.1c6.75 0 12.3-2.281 16.65-6.854 4.46-4.693 6.69-10.469 6.69-17.334 0-6.75-2.12-12.354-6.36-16.812-4.22-4.344-9.88-6.521-16.98-6.521h-27.1v47.521Zm62.46-23.854c0 10.182-3.61 18.646-10.82 25.396-6.4 5.947-14.12 9.208-23.16 9.791l35.85 46.315h-16.12l-34.15-46.148h-14.06v46.148h-12V895.041h37.39c10.4 0 19.15 3.266 26.25 9.792 7.21 6.864 10.82 15.323 10.82 25.375Zm87.97 38.604h42.4l-21.11-53.688-21.29 53.688Zm72.42 42.898h-13.04l-12.52-31.731h-51.32l-12.52 31.731h-13.04l51.31-124.731 51.13 124.731Zm76.83-57.815h27.1c6.75 0 12.3-2.291 16.65-6.875 4.46-4.568 6.69-10.281 6.69-17.146 0-6.859-2.12-12.463-6.36-16.812-4.22-4.344-9.88-6.521-16.98-6.521h-27.1v47.354Zm62.46-23.687c0 10.182-3.61 18.646-10.82 25.396-7.1 6.64-15.85 9.958-26.25 9.958h-25.39v46.148h-12V895.041h37.39c10.3 0 19.05 3.266 26.25 9.792 7.21 6.625 10.82 15.083 10.82 25.375Zm78.55 81.502h-12V895.041h12v52.5h53.02v-52.5h12v116.669h-12v-52.148h-53.02v52.148Zm186.11-54.898v54.898h-12v-54.898l-44.27-61.771h15.46l34.81 49.938 34.84-49.938h15.27l-44.11 61.771ZM405.436 598.583c-39.364 0-74.932-8.953-106.708-26.854-31.781-17.916-57.136-42.76-76.063-74.541-18.916-31.792-28.375-68.375-28.375-109.75 0-41.36 9.459-77.803 28.375-109.334 18.927-31.541 44.282-56.26 76.063-74.166 31.776-17.917 67.344-26.876 106.708-26.876 39.344 0 74.906 8.959 106.688 26.876 31.791 17.906 57.145 42.625 76.062 74.166 18.917 31.531 28.375 67.974 28.375 109.334 0 41.375-9.458 77.958-28.375 109.75-18.917 31.781-44.271 56.625-76.062 74.541-31.782 17.901-67.344 26.854-106.688 26.854Zm0-30.27c33.292 0 63.427-7.693 90.417-23.084 27-15.385 48.443-36.698 64.333-63.937 15.886-27.25 23.833-58.532 23.833-93.854 0-35.818-7.947-67.219-23.833-94.209-15.89-26.984-37.333-48.047-64.333-63.187-26.99-15.136-57.125-22.709-90.417-22.709-32.792 0-62.812 7.573-90.062 22.709-27.24 15.14-48.808 36.203-64.709 63.187-15.89 26.99-23.833 58.391-23.833 94.209 0 35.322 7.943 66.604 23.833 93.854 15.901 27.239 37.469 48.552 64.709 63.937 27.25 15.391 57.27 23.084 90.062 23.084Zm524.371 30.27c-38.349 0-73.417-9.208-105.209-27.625-31.781-18.416-56.495-43.77-74.146-76.062h-4.541V589.5h-32.542V0h32.542v279.979h4.541c17.651-31.776 42.365-56.875 74.146-75.291 31.792-18.417 66.86-27.625 105.209-27.625 38.343 0 73.153 8.958 104.433 26.875 31.28 17.906 56.12 42.625 74.52 74.166 18.42 31.531 27.63 67.974 27.63 109.334 0 41.375-9.21 77.958-27.63 109.75-18.4 31.781-43.24 56.625-74.52 74.541-31.28 17.901-66.09 26.854-104.433 26.854Zm-4.542-30.27c32.792 0 62.677-7.693 89.665-23.084 27-15.385 48.44-36.698 64.33-63.937 15.89-27.25 23.84-58.532 23.84-93.854 0-35.818-7.95-67.219-23.84-94.209-15.89-26.984-37.33-48.047-64.33-63.187-26.988-15.136-56.873-22.709-89.665-22.709-32.792 0-62.813 7.573-90.063 22.709-27.239 15.14-48.802 36.203-64.687 63.187-15.891 26.99-23.833 58.391-23.833 94.209 0 35.322 7.942 66.604 23.833 93.854 15.885 27.239 37.448 48.552 64.687 63.937 27.25 15.391 57.271 23.084 90.063 23.084Zm506.215 30.27c-43.89 0-82.23-8.953-115.02-26.854-32.79-17.916-58.27-42.76-76.44-74.541-18.16-31.792-27.25-68.375-27.25-109.75 0-41.36 9.46-77.803 28.38-109.334 18.93-31.541 44.28-56.26 76.06-74.166 31.78-17.917 67.34-26.876 106.71-26.876 39.34 0 75.03 8.959 107.06 26.876 32.04 17.906 57.4 42.625 76.06 74.166 18.67 31.531 28 67.974 28 109.334v14.395h-388.98c2.03 32.792 10.99 61.802 26.88 87.021 15.89 25.224 37.32 44.771 64.31 58.646 27 13.875 58.41 20.813 94.23 20.813 31.28 0 61.04-5.797 89.29-17.396 28.25-11.61 52.22-29.021 71.9-52.229l21.19 24.979c-23.21 26.239-50.71 45.286-82.5 57.146-31.78 11.843-65.08 17.77-99.88 17.77Zm-185.42-226.27h355.69c-2.03-32.792-11.24-61.547-27.64-86.271-16.39-24.719-37.58-44.021-63.57-57.896-25.97-13.875-54.85-20.813-86.62-20.813-31.28 0-59.91 6.938-85.9 20.813-25.99 13.875-47.18 33.177-63.58 57.896-16.39 24.724-25.85 53.479-28.38 86.271ZM1731.85 589.5V0h32.54v589.5h-32.54Z"/><path stroke="#2E3E52" stroke-width="12" d="M0 769.825h1962.1"/></svg>